# xmcd
#
# Track frame offsets:
#	150
#	18624
#	30656
#	48533
#	66585
#	87745
#	102461
#	121661
#	140168
#	160305
#	177640
#
# Disc length: 2590 seconds
#
# Revision: 0
# Processed by: cddbd v1.5.2PL0 Copyright (c) Steve Scherf et al.
# Submitted via: EZCDAudioConverter 3.0.7.1
#
DISCID=a70a1c0b
DTITLE=Dani Wilde - Songs About You
DYEAR=2015
DGENRE=Blues
TTITLE0=Open Road
TTITLE1=Change Your Mind
TTITLE2=That Ain't Love
TTITLE3=Change
TTITLE4=Loving You
TTITLE5=Let Me Be Your Sunshine
TTITLE6=Time
TTITLE7=Begging For Love
TTITLE8=Begging For Love
TTITLE9=Flame
TTITLE10=Cruel World
EXTD=
EXTT0=
EXTT1=
EXTT2=
EXTT3=
EXTT4=
EXTT5=
EXTT6=
EXTT7=
EXTT8=
EXTT9=
EXTT10=
PLAYORDER=
